<?xml version="1.0" encoding="UTF-8" standalone="no"?>
<svg
   fill="#000000"
   viewBox="0 0 64 64"
   width="48px"
   height="48px"
   version="1.1"
   id="svg367"
   sodipodi:docname="facebook.svg"
   inkscape:version="1.2.1 (9c6d41e410, 2022-07-14)"
   xmlns:inkscape="http://www.inkscape.org/namespaces/inkscape"
   xmlns:sodipodi="http://sodipodi.sourceforge.net/DTD/sodipodi-0.dtd"
   xmlns="http://www.w3.org/2000/svg"
   xmlns:svg="http://www.w3.org/2000/svg">
  <defs
     id="defs371" />
  <sodipodi:namedview
     id="namedview369"
     pagecolor="#ffffff"
     bordercolor="#000000"
     borderopacity="0.25"
     inkscape:showpageshadow="2"
     inkscape:pageopacity="0.0"
     inkscape:pagecheckerboard="0"
     inkscape:deskcolor="#d1d1d1"
     showgrid="false"
     inkscape:zoom="12.330175"
     inkscape:cx="18.81563"
     inkscape:cy="23.114028"
     inkscape:window-width="1920"
     inkscape:window-height="1017"
     inkscape:window-x="-8"
     inkscape:window-y="-8"
     inkscape:window-maximized="1"
     inkscape:current-layer="svg367" />
  <path
     d="m 18.925195,0.21319736 c -17.3524173,0 -18.71199764,1.35799104 -18.71199764,18.71199764 v 26.14961 c 0,17.352417 1.35958194,18.711998 18.71199764,18.711998 h 26.14961 c 17.352417,0 18.711998,-1.357991 18.711998,-18.711998 v -26.14961 c 0,-17.3540066 -1.357991,-18.71199764 -18.711998,-18.71199764 z M 14.784218,6.5705579 h 34.431564 c 7.617707,0 8.21366,0.5959533 8.21366,8.2136601 v 34.431564 c 0,7.617707 -0.597543,8.21366 -8.21366,8.21366 h -6.69882 V 38.419443 h 7.527637 l 1.185795,-8.458889 h -8.713432 c 0,0 -0.01272,-4.954817 0,-6.189734 0.02543,-2.417387 2.045332,-3.640061 3.780891,-3.622579 1.73556,0.01907 5.329876,0.0062 5.329876,0.0062 v -7.7977 c 0,0 -3.11148,-0.404314 -6.375984,-0.43769 -2.743201,-0.02861 -5.77236,0.715203 -8.216765,3.178681 -2.487317,2.5048 -2.879561,6.236521 -2.927242,10.796338 -0.0143,1.317563 0,4.063372 0,4.063372 h -7.366219 v 8.458889 h 7.366219 v 19.013103 h -19.32352 c -7.6177068,0 -8.2136601,-0.597543 -8.2136601,-8.21366 V 14.784218 c 0,-7.6177068 0.5959533,-8.2136601 8.2136601,-8.2136601 z"
     id="path365"
     style="stroke-width:1.58934;fill:#ffffff" />
</svg>
