<?xml version="1.0" encoding="UTF-8" standalone="no"?>
<svg
   fill="#000000"
   viewBox="0 0 24 24"
   width="24px"
   height="24px"
   version="1.1"
   id="svg192"
   sodipodi:docname="instagram.svg"
   inkscape:version="1.2.1 (9c6d41e410, 2022-07-14)"
   xmlns:inkscape="http://www.inkscape.org/namespaces/inkscape"
   xmlns:sodipodi="http://sodipodi.sourceforge.net/DTD/sodipodi-0.dtd"
   xmlns="http://www.w3.org/2000/svg"
   xmlns:svg="http://www.w3.org/2000/svg">
  <defs
     id="defs196" />
  <sodipodi:namedview
     id="namedview194"
     pagecolor="#ffffff"
     bordercolor="#000000"
     borderopacity="0.25"
     inkscape:showpageshadow="2"
     inkscape:pageopacity="0.0"
     inkscape:pagecheckerboard="0"
     inkscape:deskcolor="#d1d1d1"
     showgrid="false"
     inkscape:zoom="23.982705"
     inkscape:cx="11.4249"
     inkscape:cy="15.594571"
     inkscape:window-width="1920"
     inkscape:window-height="1017"
     inkscape:window-x="-8"
     inkscape:window-y="-8"
     inkscape:window-maximized="1"
     inkscape:current-layer="svg192" />
  <path
     d="m 6.684237,0.03953328 c -3.6638896,0 -6.64470372,2.98081412 -6.64470372,6.64470372 v 10.631526 c 0,3.66389 2.98081412,6.644704 6.64470372,6.644704 h 10.631526 c 3.66389,0 6.644704,-2.980814 6.644704,-6.644704 V 6.684237 c 0,-3.6638896 -2.980814,-6.64470372 -6.644704,-6.64470372 z m 0,2.65788152 h 10.631526 c 2.198068,0 3.986822,1.7887542 3.986822,3.9868222 v 10.631526 c 0,2.198068 -1.788754,3.986822 -3.986822,3.986822 H 6.684237 c -2.198068,0 -3.9868222,-1.788754 -3.9868222,-3.986822 V 6.684237 c 0,-2.198068 1.7887542,-3.9868222 3.9868222,-3.9868222 z m 11.960467,1.3289407 a 1.3289407,1.3289407 0 0 0 -1.328941,1.3289408 1.3289407,1.3289407 0 0 0 1.328941,1.3289407 1.3289407,1.3289407 0 0 0 1.32894,-1.3289407 1.3289407,1.3289407 0 0 0 -1.32894,-1.3289408 z M 12,5.3552963 c -3.6638896,0 -6.6447037,2.9808141 -6.6447037,6.6447037 0,3.66389 2.9808141,6.644704 6.6447037,6.644704 3.66389,0 6.644704,-2.980814 6.644704,-6.644704 C 18.644704,8.3361104 15.66389,5.3552963 12,5.3552963 Z m 0,2.6578815 c 2.198068,0 3.986822,1.7887542 3.986822,3.9868222 0,2.198068 -1.788754,3.986822 -3.986822,3.986822 C 9.801932,15.986822 8.0131778,14.198068 8.0131778,12 8.0131778,9.801932 9.801932,8.0131778 12,8.0131778 Z"
     id="path190"
     style="stroke-width:1.32894;fill:#ffffff" />
</svg>
