<?xml version="1.0" encoding="UTF-8" standalone="no"?>
<!-- Generator: Adobe Illustrator 19.0.0, SVG Export Plug-In . SVG Version: 6.00 Build 0)  -->

<svg
   version="1.1"
   id="Layer_1"
   x="0px"
   y="0px"
   viewBox="0 0 512.002 512.002"
   style="enable-background:new 0 0 512.002 512.002;"
   xml:space="preserve"
   sodipodi:docname="obilí.svg"
   inkscape:version="1.2.1 (9c6d41e410, 2022-07-14)"
   xmlns:inkscape="http://www.inkscape.org/namespaces/inkscape"
   xmlns:sodipodi="http://sodipodi.sourceforge.net/DTD/sodipodi-0.dtd"
   xmlns="http://www.w3.org/2000/svg"
   xmlns:svg="http://www.w3.org/2000/svg"><defs
   id="defs3493" /><sodipodi:namedview
   id="namedview3491"
   pagecolor="#ffffff"
   bordercolor="#000000"
   borderopacity="0.25"
   inkscape:showpageshadow="2"
   inkscape:pageopacity="0.0"
   inkscape:pagecheckerboard="0"
   inkscape:deskcolor="#d1d1d1"
   showgrid="false"
   inkscape:zoom="0.8173796"
   inkscape:cx="167.60878"
   inkscape:cy="266.70595"
   inkscape:window-width="1920"
   inkscape:window-height="1017"
   inkscape:window-x="-8"
   inkscape:window-y="-8"
   inkscape:window-maximized="1"
   inkscape:current-layer="g3456" />
<g
   id="g3458">
	<g
   id="g3456">
		<path
   d="m 381.73642,244.02625 6.8e-4,-7.3e-4 c -2.54834,-2.35223 -5.0809,-4.59328 -7.59001,-6.74327 l 58.50348,-32.23395 -8.0646,-7.44399 c -10.53431,-9.72364 -20.70622,-17.67704 -30.36141,-23.75313 l 34.02958,-30.19377 1.41755,-75.739495 -75.38324,7.467181 -27.37804,36.333444 C 320.08076,102.57839 311.34,93.074531 300.80716,83.352245 l -8.13147,-7.505708 -27.05667,61.287993 c -2.45016,-2.44533 -4.99917,-4.90298 -7.66068,-7.35966 l -8.06386,-7.44331 -27.46415,60.88465 c -2.34146,-2.32867 -4.77692,-4.67197 -7.32232,-7.02149 l -8.0624,-7.44195 -27.45963,60.87385 c -2.3414,-2.32725 -4.77472,-4.66993 -7.31865,-7.0181 l -8.06312,-7.44262 -27.46484,60.88538 c -2.34146,-2.32867 -4.77692,-4.67197 -7.32232,-7.02149 l -8.06386,-7.44331 -41.077001,91.07027 40.929931,37.78018 -44.622534,48.34275 11.624775,10.73019 44.622539,-48.34275 40.92332,37.77407 87.50556,-48.21461 -8.0646,-7.44399 c -2.5476,-2.35155 -5.08017,-4.5926 -7.59001,-6.74327 l 58.50416,-32.23469 -8.0646,-7.44398 c -2.54687,-2.35088 -5.0787,-4.59125 -7.58707,-6.74056 l 58.49234,-32.22926 -8.06459,-7.44399 c -2.54761,-2.35155 -5.08018,-4.5926 -7.59002,-6.74327 l 58.50348,-32.23395 -8.06313,-7.44263 z m 23.83873,-42.12211 -44.85887,24.71736 c -19.82366,-14.42097 -35.5529,-19.80958 -47.49596,-20.88004 l 24.82662,-26.89644 c 0.87474,-0.81203 12.11927,-10.44193 39.12518,3.45031 8.82625,4.53115 18.35145,11.10782 28.40303,19.60881 z m -110.35611,23.3379 0.0814,-0.0882 c 0,0 -0.0263,0.0315 -0.0814,0.0882 z m 42.84955,-46.42195 0.0814,-0.0882 c 0,0 -0.0263,0.0315 -0.0814,0.0882 z m -18.20832,-49.42482 c 16.05342,25.88611 7.25175,37.84982 6.56122,38.7203 l -24.82052,26.88982 c -2.00723,-11.73144 -8.55567,-26.84217 -24.25851,-45.25867 l 20.76683,-47.03569 c 9.24354,9.31743 16.53814,18.26348 21.75098,26.68424 z m -57.737,26.98348 c 35.09426,38.92448 22.1288,57.25827 21.44251,58.16396 l -24.81713,26.88615 c -2.0221,-11.82001 -8.65187,-27.07114 -24.61789,-45.68022 l 21.05833,-46.68361 c 2.44598,2.4646 4.7637,4.90745 6.93418,7.31372 z m -43.4019,45.81139 c 35.78328,39.34274 22.68528,57.86583 21.99554,58.77378 l -24.80899,26.87733 c -2.02289,-11.8221 -8.65266,-27.07323 -24.62009,-45.68225 l 21.05375,-46.67423 c 2.24684,2.2631 4.37809,4.50252 6.37979,6.70537 z M 131.93976,378.80989 99.388925,348.764 126.65271,288.31905 c 2.24684,2.2631 4.37742,4.50325 6.37979,6.70537 35.78397,39.342 22.68596,57.8651 21.99622,58.77304 l -23.08822,25.01311 z m 41.12003,-44.54675 c -2.02357,-11.82137 -8.65261,-27.07182 -24.61789,-45.68022 l 21.059,-46.68434 c 2.24684,2.2631 4.37742,4.50325 6.37912,6.7061 35.78396,39.342 22.68596,57.8651 21.99622,58.77304 z M 345.14662,159.52381 c 0.64639,-10.32038 -2.39385,-21.62268 -9.05929,-33.69776 l 26.66179,-35.380568 50.77234,-5.030885 -0.95561,51.012613 -33.13427,29.40074 c -14.50711,-6.53866 -25.86928,-7.50569 -34.28496,-6.30414 z m -160.46686,185.47325 24.81916,-26.88835 c 0.86502,-0.77201 18.28216,-15.27569 60.34043,17.22467 2.35644,1.81854 4.75973,3.76472 7.19733,5.82557 l -44.85955,24.71809 c -19.82298,-14.4217 -35.55363,-19.81025 -47.49737,-20.87998 z m -17.99919,19.49979 0.0814,-0.0882 c 0,0 -0.0263,0.0315 -0.0814,0.0882 z m 42.84819,-46.42048 0.0814,-0.0882 c 6.7e-4,-7.4e-4 -0.0257,0.0308 -0.0814,0.0882 z m 65.50007,1.37935 c -19.82581,-14.42159 -35.55505,-19.8102 -47.49958,-20.88202 l 24.8117,-26.88027 c 0.86502,-0.77201 18.28148,-15.27495 60.3397,17.224 2.35717,1.81922 4.76046,3.76539 7.19806,5.82625 z m -22.65866,-47.79247 0.0814,-0.0882 c 6.8e-4,-7.3e-4 -0.0257,0.0308 -0.0814,0.0882 z m -76.26067,147.9173 -32.54496,-30.04047 23.09297,-25.01825 c 0.45388,-0.418 4.4091,-3.83015 12.85713,-3.97573 8.93809,-0.15458 24.43041,3.39861 47.47579,21.20708 2.35717,1.81922 4.76046,3.76539 7.1988,5.82692 z M 317.86803,273.04056 c -19.82502,-14.4195 -35.55426,-19.80811 -47.49664,-20.8793 l 24.81849,-26.88762 c 0.86502,-0.77202 18.28215,-15.2757 60.34043,17.22467 2.3557,1.81787 4.75826,3.76336 7.19806,5.82625 z"
   id="path3454"
   style="fill:#ffffff" />
	</g>
</g>
<g
   id="g3460">
</g>
<g
   id="g3462">
</g>
<g
   id="g3464">
</g>
<g
   id="g3466">
</g>
<g
   id="g3468">
</g>
<g
   id="g3470">
</g>
<g
   id="g3472">
</g>
<g
   id="g3474">
</g>
<g
   id="g3476">
</g>
<g
   id="g3478">
</g>
<g
   id="g3480">
</g>
<g
   id="g3482">
</g>
<g
   id="g3484">
</g>
<g
   id="g3486">
</g>
<g
   id="g3488">
</g>
</svg>
